<svg width="512" height="512" viewBox="0 0 512 512" fill="none" xmlns="http://www.w3.org/2000/svg" xmlns:xlink="http://www.w3.org/1999/xlink" class=""><rect id="r9" width="512" height="512" x="0" y="0" rx="128" fill="url(#ra)" stroke="#FFFFFF" stroke-width="0" stroke-opacity="100%" paint-order="stroke"></rect><clipPath id="clip"><use xlink:href="#r9"></use></clipPath><defs><linearGradient id="ra" gradientUnits="userSpaceOnUse" gradientTransform="rotate(45)" style="transform-origin: center center 0px;"><stop stop-color="#99F2C8"></stop><stop offset="1" stop-color="#1F4037"></stop></linearGradient><radialGradient id="rb" cx="0" cy="0" r="1" gradientUnits="userSpaceOnUse" gradientTransform="translate(256) rotate(90) scale(512)"><stop stop-color="white"></stop><stop offset="1" stop-color="white" stop-opacity="0"></stop></radialGradient></defs><svg xmlns="http://www.w3.org/2000/svg" fill="none" viewBox="0 0 16 16" width="350" height="350" x="81" y="81" style="color: rgb(255, 255, 255);" alignment-baseline="middle"><path stroke="currentColor" stroke-linecap="round" stroke-linejoin="round" stroke-width="1.5" d="M4.5 8S6 7 8 7s3.5 1 3.5 1M4.25 5.771v4.458c0 .564-.352 1.021-.786 1.021h-.928c-.434 0-.786-.457-.786-1.021V5.77c0-.564.352-1.021.786-1.021h.928c.434 0 .786.457.786 1.021Zm10 0v4.458c0 .564-.352 1.021-.786 1.021h-.928c-.434 0-.786-.457-.786-1.021V5.77c0-.564.352-1.021.786-1.021h.928c.434 0 .786.457.786 1.021Z"></path></svg></svg>